<svg width="16" height="16" viewBox="0 0 16 16" fill="none" xmlns="http://www.w3.org/2000/svg">
<path d="M12.25 2.32031C11.4688 1.57031 10.25 1.57031 9.46875 2.32031L3.71875 8.07031C2.40625 9.38281 2.40625 11.5391 3.71875 12.8516C5.03125 14.1641 7.1875 14.1641 8.5 12.8516L13.25 8.10156C13.5938 7.75781 14.125 7.75781 14.4688 8.10156C14.8125 8.44531 14.8125 8.97656 14.4688 9.32031L9.71875 14.0703C7.71875 16.0703 4.5 16.0703 2.5 14.0703C0.5 12.0703 0.5 8.85156 2.5 6.85156L8.25 1.10156C9.6875 -0.367188 12.0312 -0.367188 13.4688 1.10156C14.9375 2.53906 14.9375 4.88281 13.4688 6.32031L7.96875 11.8203C7.09375 12.7266 5.625 12.7266 4.75 11.8203C3.84375 10.9453 3.84375 9.47656 4.75 8.60156L9.25 4.10156C9.59375 3.75781 10.125 3.75781 10.4688 4.10156C10.8125 4.44531 10.8125 4.97656 10.4688 5.32031L5.96875 9.82031C5.78125 10.0391 5.78125 10.3828 5.96875 10.6016C6.1875 10.7891 6.53125 10.7891 6.75 10.6016L12.25 5.10156C13 4.32031 13 3.10156 12.25 2.32031Z" fill="#192040"/>
</svg>
