<svg width="49" height="48" viewBox="0 0 49 48" fill="none" xmlns="http://www.w3.org/2000/svg">
<path d="M17 18.1429C17 17.5357 17.5 17 18.1429 17H31.8571C32.4643 17 33 17.5357 33 18.1429C33 18.7857 32.4643 19.2857 31.8571 19.2857H18.1429C17.5 19.2857 17 18.7857 17 18.1429ZM17 23.8571C17 23.25 17.5 22.7143 18.1429 22.7143H31.8571C32.4643 22.7143 33 23.25 33 23.8571C33 24.5 32.4643 25 31.8571 25H18.1429C17.5 25 17 24.5 17 23.8571ZM31.8571 30.7143H18.1429C17.5 30.7143 17 30.2143 17 29.5714C17 28.9643 17.5 28.4286 18.1429 28.4286H31.8571C32.4643 28.4286 33 28.9643 33 29.5714C33 30.2143 32.4643 30.7143 31.8571 30.7143Z" fill="#192040"/>
<rect x="1.49512" y="0.5" width="46.9976" height="46.9976" rx="23.4988" stroke="#EDEDF2"/>
</svg>
