<svg width="18" height="18" viewBox="0 0 18 18" fill="none" xmlns="http://www.w3.org/2000/svg">
<path d="M8.63574 6.52734C8.71777 6.52734 8.7998 6.5 8.88184 6.5C10.3311 6.5 11.5068 7.67578 11.5068 9.125C11.5068 10.5742 10.3311 11.75 8.88184 11.75C7.40527 11.75 6.25684 10.5742 6.25684 9.125C6.25684 9.07031 6.25684 8.98828 6.25684 8.90625C6.50293 9.04297 6.80371 9.125 7.13184 9.125C8.08887 9.125 8.88184 8.35938 8.88184 7.375C8.88184 7.07422 8.77246 6.77344 8.63574 6.52734ZM14.1318 5.21484C15.417 6.39062 16.2646 7.8125 16.6748 8.79688C16.7568 9.01562 16.7568 9.26172 16.6748 9.48047C16.2646 10.4375 15.417 11.8594 14.1318 13.0625C12.8467 14.2656 11.0693 15.25 8.88184 15.25C6.66699 15.25 4.88965 14.2656 3.60449 13.0625C2.31934 11.8594 1.47168 10.4375 1.06152 9.48047C0.979492 9.26172 0.979492 9.01562 1.06152 8.79688C1.47168 7.8125 2.31934 6.39062 3.60449 5.21484C4.88965 4.01172 6.66699 3 8.88184 3C11.0693 3 12.8467 4.01172 14.1318 5.21484ZM8.88184 5.1875C6.69434 5.1875 4.94434 6.96484 4.94434 9.125C4.94434 11.3125 6.69434 13.0625 8.88184 13.0625C11.042 13.0625 12.8193 11.3125 12.8193 9.125C12.8193 6.96484 11.042 5.1875 8.88184 5.1875Z" fill="#828299"/>
</svg>
