<svg width="24" height="24" viewBox="0 0 24 24" fill="none" xmlns="http://www.w3.org/2000/svg">
<path d="M16.9766 12.75L17 16.5C17 17.3438 16.3203 18 15.5 18H8C7.15625 18 6.5 17.3438 6.5 16.5V12.75H5.75C5.32812 12.75 5 12.4219 5 12C5 11.7891 5.07031 11.6016 5.23437 11.4375L11.2344 6.21094C11.3984 6.04688 11.5859 6 11.75 6C11.9141 6 12.1016 6.07031 12.2422 6.1875L18.2187 11.4375C18.4062 11.6016 18.5 11.7891 18.4766 12C18.4766 12.4219 18.125 12.75 17.7266 12.75H16.9766ZM10.8125 10.5C10.4844 10.5 10.25 10.7578 10.25 11.0625V12.9375C10.25 13.2656 10.4844 13.5 10.8125 13.5H12.6875C12.9922 13.5 13.25 13.2656 13.25 12.9375V11.0625C13.25 10.7578 12.9922 10.5 12.6875 10.5H10.8125Z" fill="#828299"/>
</svg>
