<svg width="137" height="124" viewBox="0 0 137 124" fill="none" xmlns="http://www.w3.org/2000/svg">
<path d="M29.3704 56.7557C31.3096 78.939 60.2873 118.153 79.7155 115.887C99.1437 113.621 101.632 70.7162 99.7291 48.5328C97.7899 26.3495 80.4838 10.1963 61.0556 12.4621C41.6274 14.7645 27.4312 34.5723 29.3704 56.7557Z" fill="#D3E5CF"/>
<g opacity="0.8">
<path d="M17.2232 99.2585C23.6627 113.109 49.567 116.398 70.5685 111.245C91.57 106.093 124.133 85.9923 117.694 53.2107C115.206 40.4562 102.217 18.0171 59.2628 35.5591C35.4074 45.2803 8.3323 80.1084 17.2232 99.2585Z" fill="#FFDC8D"/>
</g>
<path d="M6.28336 50.5429C6.28336 74.5169 43.4568 100.72 63.946 100.72C84.4353 100.72 106.498 74.5169 106.498 50.5429C106.498 26.5688 97.8631 10.3059 67.5682 28.5057C49.3108 39.4695 6.28336 26.5688 6.28336 50.5429Z" fill="url(#paint0_linear_2901_5483)"/>
<path d="M69.2147 19.6617C71.6295 22.3295 81.2155 21.1966 85.0573 16.4822C88.8624 11.7678 85.4963 5.22608 83.0449 2.59478C80.6301 -0.0730689 75.5444 1.60804 71.7392 6.32245C67.8975 11.0369 66.7633 16.9938 69.2147 19.6617Z" fill="#FFDC8D"/>
<path d="M14.0034 83.5438C15.1742 80.9856 13.1619 73.4937 9.90557 71.4471C6.64923 69.4371 3.3929 73.6033 2.1855 76.1615C1.01468 78.7197 2.69773 82.4109 5.95406 84.4574C9.24698 86.504 12.8326 86.102 14.0034 83.5438Z" fill="#D3E5CF"/>
<path d="M97.1679 17.5785C96.4362 19.15 98.0095 24.0106 100.315 25.4359C102.583 26.8612 104.705 24.3029 105.437 22.7315C106.169 21.16 104.925 18.7114 102.62 17.2861C100.351 15.8609 97.8997 15.9705 97.1679 17.5785Z" fill="#D3E5CF"/>
<path d="M64.4583 120.565L63.7631 122.684H62.885L65.1534 115.996H66.2145L68.5195 122.684H67.6048L66.8731 120.601L64.4583 120.565ZM66.6535 119.87L65.995 117.933C65.8486 117.495 65.7388 117.093 65.6291 116.727H65.5925C65.4827 117.129 65.373 117.531 65.2632 117.933L64.6046 119.87H66.6535Z" fill="#192040"/>
<path d="M71.849 116.033C72.2881 115.96 72.9101 115.887 73.4955 115.887C74.4102 115.887 75.0322 116.033 75.4347 116.435C75.7639 116.727 75.9469 117.202 75.9469 117.714C75.9469 118.591 75.3981 119.176 74.7029 119.432V119.468C75.2151 119.651 75.5444 120.126 75.6908 120.821C75.9103 121.771 76.0567 122.392 76.203 122.648H75.3249C75.2151 122.465 75.0688 121.88 74.8858 121.04C74.6663 120.126 74.337 119.761 73.5321 119.761H72.7271V122.648H71.849V116.033ZM72.6906 119.066H73.5687C74.4834 119.066 75.0688 118.555 75.0688 117.787C75.0688 116.91 74.4468 116.545 73.5321 116.545C73.1296 116.545 72.8003 116.581 72.6906 116.618V119.066Z" fill="#192040"/>
<path d="M80.9229 116.654H78.8739V115.923H83.8133V116.654H81.7644V122.611H80.8863L80.9229 116.654Z" fill="#192040"/>
<path d="M88.46 119.578V120.236H86.0086V119.578H88.46Z" fill="#192040"/>
<path d="M91.7895 121.515C92.192 121.734 92.7408 121.953 93.3262 121.953C94.2043 121.953 94.7165 121.478 94.7165 120.821C94.7165 120.199 94.3506 119.834 93.4359 119.505C92.3383 119.139 91.6797 118.555 91.6797 117.604C91.6797 116.545 92.5213 115.777 93.8384 115.777C94.5336 115.777 95.0092 115.923 95.3019 116.106L95.0824 116.8C94.8629 116.691 94.4238 116.472 93.8018 116.472C92.8871 116.472 92.5578 117.02 92.5578 117.495C92.5578 118.116 92.9603 118.408 93.875 118.774C95.0092 119.213 95.5946 119.761 95.5946 120.747C95.5946 121.771 94.8263 122.684 93.253 122.684C92.5944 122.684 91.8992 122.502 91.5334 122.246L91.7895 121.515Z" fill="#192040"/>
<path d="M100.461 116.581H98.4119V115.85H103.351V116.581H101.302V122.538H100.424L100.461 116.581Z" fill="#192040"/>
<path d="M107.339 115.85V119.797C107.339 121.296 107.998 121.917 108.913 121.917C109.901 121.917 110.523 121.259 110.523 119.797V115.85H111.401V119.761C111.401 121.807 110.34 122.648 108.876 122.648C107.522 122.648 106.461 121.88 106.461 119.797V115.85H107.339Z" fill="#192040"/>
<path d="M115.316 115.923C115.828 115.85 116.45 115.777 117.145 115.777C118.389 115.777 119.267 116.07 119.852 116.618C120.438 117.166 120.804 117.933 120.804 119.03C120.804 120.126 120.474 121.003 119.852 121.625C119.23 122.246 118.206 122.575 116.889 122.611C116.267 122.611 115.755 122.575 115.316 122.538V115.923ZM116.194 121.807C116.413 121.844 116.742 121.844 117.072 121.844C118.901 121.844 119.926 120.821 119.926 118.993C119.926 117.422 119.048 116.398 117.218 116.435C116.779 116.435 116.45 116.472 116.194 116.545V121.807Z" fill="#192040"/>
<path d="M125.158 115.777L125.194 122.465H124.316L124.28 115.777H125.158Z" fill="#192040"/>
<path d="M134.78 119.03C134.78 121.332 133.39 122.538 131.67 122.575C129.914 122.575 128.67 121.223 128.634 119.176C128.634 117.056 129.951 115.668 131.744 115.668C133.61 115.668 134.78 117.056 134.78 119.03ZM129.585 119.176C129.585 120.601 130.353 121.88 131.744 121.88C133.097 121.88 133.902 120.601 133.866 119.103C133.866 117.787 133.171 116.398 131.707 116.398C130.317 116.362 129.585 117.678 129.585 119.176Z" fill="#192040"/>
<path d="M24.7603 65.819C25.2359 69.4005 27.9069 71.4105 32.6633 71.4105C37.2368 71.4105 39.615 69.5101 39.615 66.5134C39.5784 58.9118 23.2236 64.7592 23.187 55.0014C23.187 50.8718 26.5531 48.1308 31.895 48.1308C37.4563 48.1308 40.8956 50.9449 41.2615 55.44H38.8101C38.554 52.8452 36.4684 50.3967 31.8584 50.3967C27.8703 50.3967 25.6384 52.1509 25.675 54.8918C25.7116 62.201 42.0298 56.4633 42.0664 66.4037C42.0664 70.6065 38.6637 73.7129 32.6633 73.7129C26.6629 73.7129 22.9309 71.0085 22.3089 65.819H24.7603Z" fill="#192040"/>
<path d="M56.2625 48.4597V50.6525L49.3474 50.689L49.384 65.7825C49.384 69.9487 52.1647 70.972 54.36 70.972H56.2625V73.3109H54.3234C50.9573 73.3109 47.0058 71.4836 47.0058 65.7825L46.9692 50.689H43.2372V48.4963H46.9692L46.9326 41.2968H49.3108L49.3474 48.4963L56.2625 48.4597Z" fill="#192040"/>
<path d="M81.179 67.3539C78.8373 71.1182 75.3249 73.5667 69.7269 73.6033C62.2264 73.6398 56.8114 68.0848 56.7748 60.8488C56.7382 53.7223 62.1898 48.0943 69.4342 48.0577C76.825 48.0212 82.0205 53.6858 82.0205 60.0082C82.0205 60.4102 81.9839 60.8122 81.9839 61.1411C81.9473 61.2873 81.9473 61.47 81.9473 61.6528L59.3359 61.7259C59.7384 67.7925 64.3485 71.2278 69.6903 71.2278C74.5931 71.2278 77.3372 69.2543 79.2764 66.0748L81.179 67.3539ZM59.3725 59.46L79.5325 59.3869C78.9837 53.7954 74.6297 50.3236 69.4708 50.3236C64.4948 50.3601 59.8848 53.9051 59.3725 59.46Z" fill="#192040"/>
<path d="M105.62 57.9617L105.656 73.1282H103.242L103.205 58.254C103.205 53.2472 100.461 50.287 95.741 50.287C90.8382 50.287 87.6916 53.5762 87.7282 58.9849L87.7648 73.1647H85.3134L85.2402 48.3501H87.6916V52.1143C89.1186 49.885 91.6431 47.9481 95.9605 47.9116C101.741 47.9481 105.62 51.8585 105.62 57.9617Z" fill="#192040"/>
<path d="M134.451 60.593C134.488 67.829 128.89 73.4205 121.718 73.4205C114.474 73.4571 108.876 67.9021 108.876 60.666C108.839 53.5396 114.401 47.9115 121.645 47.875C128.78 47.8385 134.414 53.43 134.451 60.593ZM111.291 60.7026C111.291 66.5499 115.755 71.1182 121.718 71.0816C127.646 71.0816 132.036 66.4768 132 60.6295C132 54.6725 127.536 50.1774 121.645 50.1774C115.681 50.2139 111.291 54.7456 111.291 60.7026Z" fill="#192040"/>
<path d="M52.1647 103.498L52.2013 117.056H49.7865L49.6767 83.6168H52.0915V88.4774C54.1039 85.3345 57.6895 83.2148 62.4459 83.1783C69.5806 83.1417 75.142 88.7332 75.142 95.8962C75.1785 103.132 69.6538 108.724 62.5191 108.724C57.7992 108.76 54.2136 106.641 52.1647 103.498ZM51.9818 96.0059C51.9818 101.926 56.5187 106.421 62.4093 106.385C68.3732 106.385 72.7637 101.78 72.7637 95.9328C72.7637 89.9758 68.3 85.4807 62.3362 85.4807C56.4821 85.5538 51.9818 90.0854 51.9818 96.0059Z" fill="#192040"/>
<path d="M89.1186 85.8096C84.3621 85.8096 80.8497 89.4642 80.8497 94.8729L80.8863 108.358H78.4715L78.3983 83.5437H80.8131V88.1485C81.7644 86.3212 84.4719 83.1417 89.082 83.1052L89.1186 85.8096Z" fill="#192040"/>
<path d="M92.3017 76.9655V74.3342H94.7531V76.9655H92.3017ZM92.4115 108.322L92.3383 83.5072H94.7897L94.8629 108.322H92.4115Z" fill="#192040"/>
<path d="M119.121 93.0457L119.157 108.212H116.742L116.706 93.338C116.706 88.3312 113.962 85.371 109.242 85.371C104.339 85.371 101.193 88.6602 101.229 94.0689L101.266 108.249H98.851L98.7778 83.4341H101.193V87.1983C102.62 84.969 105.144 83.0321 109.461 82.9956C115.206 83.0321 119.084 86.9425 119.121 93.0457Z" fill="#192040"/>
<path d="M134.085 83.361V85.5538L127.17 85.5903L127.207 100.684C127.207 104.85 129.987 105.873 132.183 105.873H134.085V108.212H132.146C128.78 108.212 124.828 106.385 124.828 100.684L124.792 85.5903H121.06V83.3976H124.792L124.755 76.198H127.133L127.17 83.3976L134.085 83.361Z" fill="#192040"/>
<defs>
<linearGradient id="paint0_linear_2901_5483" x1="38.1654" y1="18.019" x2="108.922" y2="130.591" gradientUnits="userSpaceOnUse">
<stop stop-color="#FE4F72"/>
<stop offset="0.54" stop-color="#FFB53D"/>
<stop offset="1" stop-color="#E7BD33"/>
</linearGradient>
</defs>
</svg>
