<svg width="118" height="115" viewBox="0 0 118 115" fill="none" xmlns="http://www.w3.org/2000/svg">
<path d="M28.3704 55.7557C30.3096 77.939 59.2873 117.153 78.7155 114.887C98.1437 112.621 100.632 69.7162 98.7291 47.5328C96.7899 25.3495 79.4838 9.19626 60.0556 11.4621C40.6274 13.7645 26.4312 33.5723 28.3704 55.7557Z" fill="#D3E5CF"/>
<g opacity="0.8">
<path d="M16.2232 98.2585C22.6627 112.109 48.567 115.398 69.5685 110.245C90.57 105.093 123.133 84.9923 116.694 52.2107C114.206 39.4562 101.217 17.0171 58.2628 34.5591C34.4074 44.2803 7.3323 79.1084 16.2232 98.2585Z" fill="#FFDC8D"/>
</g>
<path d="M5.28336 49.5429C5.28336 73.5169 42.4568 99.7203 62.946 99.7203C83.4353 99.7203 105.498 73.5169 105.498 49.5429C105.498 25.5688 96.8631 9.30592 66.5682 27.5057C48.3108 38.4695 5.28336 25.5688 5.28336 49.5429Z" fill="url(#paint0_linear_2901_5484)"/>
<path d="M68.2147 18.6617C70.6295 21.3295 80.2155 20.1966 84.0573 15.4822C87.8624 10.7678 84.4963 4.22608 82.0449 1.59478C79.6301 -1.07307 74.5444 0.608039 70.7392 5.32245C66.8975 10.0369 65.7633 15.9938 68.2147 18.6617Z" fill="#FFDC8D"/>
<path d="M13.0034 82.5438C14.1742 79.9856 12.1619 72.4937 8.90557 70.4471C5.64923 68.4371 2.3929 72.6033 1.1855 75.1615C0.0146847 77.7197 1.69773 81.4109 4.95406 83.4574C8.24698 85.504 11.8326 85.102 13.0034 82.5438Z" fill="#D3E5CF"/>
<path d="M96.1679 16.5785C95.4362 18.15 97.0095 23.0106 99.3145 24.4359C101.583 25.8612 103.705 23.3029 104.437 21.7315C105.169 20.16 103.925 17.7114 101.62 16.2861C99.3511 14.8609 96.8997 14.9705 96.1679 16.5785Z" fill="#D3E5CF"/>
<defs>
<linearGradient id="paint0_linear_2901_5484" x1="37.1654" y1="17.019" x2="107.922" y2="129.591" gradientUnits="userSpaceOnUse">
<stop stop-color="#FE4F72"/>
<stop offset="0.54" stop-color="#FFB53D"/>
<stop offset="1" stop-color="#E7BD33"/>
</linearGradient>
</defs>
</svg>
