<svg width="17" height="17" viewBox="0 0 17 17" fill="none" xmlns="http://www.w3.org/2000/svg">
<path d="M16.9688 12.0937L16.2188 15.25C16.125 15.7187 15.75 16.0312 15.2812 16.0312C7.40625 16 1 9.59375 1 1.71875C1 1.25 1.28125 0.874996 1.75 0.781246L4.90625 0.0312464C5.34375 -0.0625036 5.8125 0.187496 6 0.593746L7.46875 4C7.625 4.40625 7.53125 4.875 7.1875 5.125L5.5 6.5C6.5625 8.65625 8.3125 10.4062 10.5 11.4687L11.875 9.78125C12.125 9.46875 12.5938 9.34375 13 9.5L16.4062 10.9687C16.8125 11.1875 17.0625 11.6562 16.9688 12.0937Z" fill="#192040"/>
</svg>
