<svg width="49" height="48" viewBox="0 0 49 48" fill="none" xmlns="http://www.w3.org/2000/svg">
<path d="M32.9688 28.0937L32.2188 31.25C32.125 31.7187 31.75 32.0312 31.2812 32.0312C23.4062 32 17 25.5937 17 17.7187C17 17.25 17.2812 16.875 17.75 16.7812L20.9062 16.0312C21.3438 15.9375 21.8125 16.1875 22 16.5937L23.4688 20C23.625 20.4062 23.5312 20.875 23.1875 21.125L21.5 22.5C22.5625 24.6562 24.3125 26.4062 26.5 27.4687L27.875 25.7812C28.125 25.4687 28.5938 25.3437 29 25.5L32.4062 26.9687C32.8125 27.1875 33.0625 27.6562 32.9688 28.0937Z" fill="#192040"/>
<rect x="1.49756" y="0.5" width="46.9976" height="46.9976" rx="23.4988" stroke="#EDEDF2"/>
</svg>
