<svg width="16" height="16" viewBox="0 0 16 16" fill="none" xmlns="http://www.w3.org/2000/svg">
<path d="M15.646 13.866L11.896 10.116C12.7398 8.866 13.1773 7.3035 12.9585 5.616C12.5523 2.741 10.2085 0.428501 7.36478 0.0535006C3.11478 -0.477749 -0.47897 3.116 0.0522799 7.366C0.42728 10.2098 2.73978 12.5535 5.61478 12.9598C7.30228 13.1785 8.86478 12.741 10.146 11.8973L13.8648 15.6473C14.3648 16.116 15.146 16.116 15.646 15.6473C16.1148 15.1473 16.1148 14.366 15.646 13.866ZM2.48978 6.491C2.48978 4.3035 4.27103 2.491 6.48978 2.491C8.67728 2.491 10.4898 4.3035 10.4898 6.491C10.4898 8.70975 8.67728 10.491 6.48978 10.491C4.27103 10.491 2.48978 8.70975 2.48978 6.491Z" fill="#192040"/>
</svg>
