<svg width="48" height="48" viewBox="0 0 48 48" fill="none" xmlns="http://www.w3.org/2000/svg">
<path d="M31.646 29.8648L27.896 26.1148C28.7398 24.8648 29.1773 23.3023 28.9585 21.6148C28.5523 18.7398 26.2085 16.4273 23.3648 16.0523C19.1148 15.521 15.521 19.1148 16.0523 23.3648C16.4273 26.2085 18.7398 28.5523 21.6148 28.9585C23.3023 29.1773 24.8648 28.7398 26.146 27.896L29.8648 31.646C30.3648 32.1148 31.146 32.1148 31.646 31.646C32.1148 31.146 32.1148 30.3648 31.646 29.8648ZM18.4898 22.4898C18.4898 20.3023 20.271 18.4898 22.4898 18.4898C24.6773 18.4898 26.4898 20.3023 26.4898 22.4898C26.4898 24.7085 24.6773 26.4898 22.4898 26.4898C20.271 26.4898 18.4898 24.7085 18.4898 22.4898Z" fill="#192040"/>
<rect x="0.5" y="0.5" width="46.9976" height="46.9976" rx="23.4988" stroke="#EDEDF2"/>
</svg>
