<svg width="24" height="24" viewBox="0 0 24 24" fill="none" xmlns="http://www.w3.org/2000/svg">
<path d="M18.7812 17.8789L15.1172 14.2148C15.9102 13.2578 16.3477 12.0273 16.3477 10.6875C16.3477 7.57031 13.7773 5 10.6602 5C7.51562 5 5 7.57031 5 10.6875C5 13.832 7.54297 16.375 10.6602 16.375C11.9727 16.375 13.2031 15.9375 14.1875 15.1445L17.8516 18.8086C17.9883 18.9453 18.1523 19 18.3438 19C18.5078 19 18.6719 18.9453 18.7812 18.8086C19.0547 18.5625 19.0547 18.1523 18.7812 17.8789ZM6.3125 10.6875C6.3125 8.28125 8.25391 6.3125 10.6875 6.3125C13.0938 6.3125 15.0625 8.28125 15.0625 10.6875C15.0625 13.1211 13.0938 15.0625 10.6875 15.0625C8.25391 15.0625 6.3125 13.1211 6.3125 10.6875Z" fill="white"/>
</svg>
