<svg width="113" height="77" viewBox="0 0 113 77" fill="none" xmlns="http://www.w3.org/2000/svg">
<path d="M2.76029 24.819C3.23594 28.4005 5.90686 30.4105 10.6633 30.4105C15.2368 30.4105 17.615 28.5101 17.615 25.5134C17.5784 17.9118 1.2236 23.7592 1.18701 14.0014C1.18701 9.87176 4.55311 7.13082 9.89495 7.13082C15.4563 7.13082 18.8956 9.94485 19.2615 14.44H16.8101C16.554 11.8452 14.4684 9.39666 9.85836 9.39666C5.87027 9.39666 3.63841 11.1509 3.67499 13.8918C3.71158 21.201 20.0298 15.4633 20.0664 25.4037C20.0664 29.6065 16.6637 32.7129 10.6633 32.7129C4.66287 32.7129 0.930895 30.0085 0.308899 24.819H2.76029Z" fill="#192040"/>
<path d="M34.2625 7.45974V9.65249L27.3474 9.68903L27.384 24.7825C27.384 28.9487 30.1647 29.972 32.36 29.972H34.2625V32.3109H32.3234C28.9573 32.3109 25.0058 30.4836 25.0058 24.7825L24.9692 9.68903H21.2372V7.49628H24.9692L24.9326 0.296753H27.3108L27.3474 7.49628L34.2625 7.45974Z" fill="#192040"/>
<path d="M59.179 26.3539C56.8373 30.1182 53.3249 32.5667 47.7269 32.6033C40.2264 32.6398 34.8114 27.0848 34.7748 19.8488C34.7382 12.7223 40.1898 7.09428 47.4342 7.05773C54.825 7.02118 60.0205 12.6858 60.0205 19.0082C60.0205 19.4102 59.9839 19.8122 59.9839 20.1411C59.9473 20.2873 59.9473 20.47 59.9473 20.6528L37.3359 20.7259C37.7384 26.7925 42.3485 30.2278 47.6903 30.2278C52.5931 30.2278 55.3372 28.2543 57.2764 25.0748L59.179 26.3539ZM37.3725 18.46L57.5325 18.3869C56.9837 12.7954 52.6297 9.32357 47.4708 9.32357C42.4948 9.36012 37.8848 12.9051 37.3725 18.46Z" fill="#192040"/>
<path d="M83.6197 16.9617L83.6563 32.1282H81.2415L81.2049 17.254C81.2049 12.2472 78.4608 9.28703 73.741 9.28703C68.8382 9.28703 65.6916 12.5762 65.7282 17.9849L65.7648 32.1647H63.3134L63.2402 7.3501H65.6916V11.1143C67.1186 8.88503 69.6431 6.9481 73.9605 6.91155C79.7414 6.9481 83.6197 10.8585 83.6197 16.9617Z" fill="#192040"/>
<path d="M112.451 19.593C112.488 26.829 106.89 32.4205 99.7185 32.4205C92.474 32.4571 86.8761 26.9021 86.8761 19.666C86.8395 12.5396 92.4009 6.91155 99.6453 6.875C106.78 6.83846 112.414 12.43 112.451 19.593ZM89.2909 19.7026C89.2909 25.5499 93.7546 30.1182 99.7185 30.0816C105.646 30.0816 110.036 25.4768 110 19.6295C110 13.6725 105.536 9.17739 99.6453 9.17739C93.6814 9.21394 89.2909 13.7456 89.2909 19.7026Z" fill="#192040"/>
<path d="M30.1647 62.4978L30.2013 76.0563H27.7865L27.6767 42.6168H30.0915V47.4774C32.1039 44.3345 35.6895 42.2148 40.4459 42.1783C47.5806 42.1417 53.142 47.7332 53.142 54.8962C53.1785 62.1323 47.6538 67.7238 40.5191 67.7238C35.7992 67.7604 32.2136 65.6407 30.1647 62.4978ZM29.9818 55.0059C29.9818 60.9263 34.5187 65.4214 40.4093 65.3849C46.3732 65.3849 50.7637 60.7801 50.7637 54.9328C50.7637 48.9758 46.3 44.4807 40.3362 44.4807C34.4821 44.5538 29.9818 49.0854 29.9818 55.0059Z" fill="#192040"/>
<path d="M67.1186 44.8096C62.3621 44.8096 58.8497 48.4642 58.8497 53.8729L58.8863 67.3584H56.4715L56.3983 42.5437H58.8131V47.1485C59.7644 45.3212 62.4719 42.1417 67.082 42.1052L67.1186 44.8096Z" fill="#192040"/>
<path d="M70.3017 35.9655V33.3342H72.7531V35.9655H70.3017ZM70.4115 67.3218L70.3383 42.5072H72.7897L72.8629 67.3218H70.4115Z" fill="#192040"/>
<path d="M97.1207 52.0457L97.1573 67.2122H94.7425L94.7059 52.338C94.7059 47.3312 91.9618 44.371 87.2419 44.371C82.3392 44.371 79.1926 47.6602 79.2292 53.0689L79.2658 67.2487H76.851L76.7778 42.4341H79.1926V46.1983C80.6195 43.969 83.1441 42.0321 87.4615 41.9956C93.2058 42.0321 97.0841 45.9425 97.1207 52.0457Z" fill="#192040"/>
<path d="M112.085 42.361V44.5538L105.17 44.5903L105.207 59.6837C105.207 63.85 107.987 64.8732 110.183 64.8732H112.085V67.2122H110.146C106.78 67.2122 102.828 65.3849 102.828 59.6837L102.792 44.5903H99.0599V42.3976H102.792L102.755 35.198H105.133L105.17 42.3976L112.085 42.361Z" fill="#192040"/>
</svg>
