<svg width="73" height="8" viewBox="0 0 73 8" fill="none" xmlns="http://www.w3.org/2000/svg">
<path d="M2.45826 5.5647L1.76309 7.68436H0.884979L3.15343 0.996467H4.21448L6.51953 7.68436H5.60483L4.87307 5.60124L2.45826 5.5647ZM4.65354 4.87033L3.99496 2.9334C3.84861 2.49485 3.73884 2.09284 3.62908 1.72738H3.59249C3.48272 2.12939 3.37296 2.5314 3.2632 2.9334L2.60461 4.87033H4.65354Z" fill="#192040"/>
<path d="M9.84904 1.03302C10.2881 0.959923 10.9101 0.886834 11.4955 0.886834C12.4102 0.886834 13.0322 1.03302 13.4347 1.43502C13.7639 1.72739 13.9469 2.20248 13.9469 2.71413C13.9469 3.59123 13.3981 4.17595 12.7029 4.43177V4.46832C13.2151 4.65105 13.5444 5.12615 13.6908 5.82052C13.9103 6.77071 14.0567 7.39199 14.203 7.64781H13.3249C13.2151 7.46508 13.0688 6.88035 12.8858 6.0398C12.6663 5.12615 12.337 4.76069 11.5321 4.76069H10.7271V7.64781H9.84904V1.03302ZM10.6906 4.06631H11.5687C12.4834 4.06631 13.0688 3.55467 13.0688 2.78721C13.0688 1.91011 12.4468 1.54465 11.5321 1.54465C11.1296 1.54465 10.8003 1.5812 10.6906 1.61775V4.06631Z" fill="#192040"/>
<path d="M18.9229 1.6543H16.8739V0.923382H21.8133V1.6543H19.7644V7.61126H18.8863L18.9229 1.6543Z" fill="#192040"/>
<path d="M26.46 4.57797V5.23579H24.0086V4.57797H26.46Z" fill="#192040"/>
<path d="M29.7895 6.51489C30.192 6.73416 30.7408 6.95344 31.3262 6.95344C32.2043 6.95344 32.7165 6.47835 32.7165 5.82052C32.7165 5.19924 32.3506 4.83378 31.4359 4.50487C30.3383 4.13941 29.6797 3.55467 29.6797 2.60448C29.6797 1.54465 30.5213 0.77719 31.8384 0.77719C32.5336 0.77719 33.0092 0.923382 33.3019 1.10611L33.0824 1.80048C32.8629 1.69084 32.4238 1.47157 31.8018 1.47157C30.8871 1.47157 30.5578 2.01975 30.5578 2.49485C30.5578 3.11613 30.9603 3.40849 31.875 3.77395C33.0092 4.2125 33.5946 4.76069 33.5946 5.74743C33.5946 6.77071 32.8263 7.68436 31.253 7.68436C30.5944 7.68436 29.8992 7.50163 29.5334 7.24581L29.7895 6.51489Z" fill="#192040"/>
<path d="M38.4608 1.5812H36.4119V0.850286H41.3513V1.5812H39.3024V7.53817H38.4243L38.4608 1.5812Z" fill="#192040"/>
<path d="M45.3394 0.850286V4.79723C45.3394 6.29561 45.998 6.9169 46.9127 6.9169C47.9005 6.9169 48.5225 6.25906 48.5225 4.79723V0.850286H49.4007V4.76069C49.4007 6.80726 48.3396 7.64781 46.8761 7.64781C45.5223 7.64781 44.4613 6.88034 44.4613 4.79723V0.850286H45.3394Z" fill="#192040"/>
<path d="M53.3156 0.923382C53.8278 0.85029 54.4498 0.77719 55.145 0.77719C56.389 0.77719 57.2671 1.06956 57.8525 1.61775C58.4379 2.16594 58.8038 2.9334 58.8038 4.02978C58.8038 5.12615 58.4745 6.00324 57.8525 6.62452C57.2305 7.2458 56.206 7.57472 54.8888 7.61126C54.2669 7.61126 53.7546 7.57471 53.3156 7.53817V0.923382ZM54.1937 6.80725C54.4132 6.8438 54.7425 6.8438 55.0718 6.8438C56.9012 6.8438 57.9256 5.82052 57.9256 3.99323C57.9256 2.42176 57.0475 1.39848 55.2181 1.43502C54.7791 1.43502 54.4498 1.47156 54.1937 1.54465V6.80725Z" fill="#192040"/>
<path d="M63.1577 0.77719L63.1943 7.46508H62.3162L62.2796 0.77719H63.1577Z" fill="#192040"/>
<path d="M72.7804 4.02978C72.7804 6.33217 71.39 7.53817 69.6704 7.57472C67.9142 7.57472 66.6702 6.22253 66.6336 4.17596C66.6336 2.0563 67.9508 0.667557 69.7436 0.667557C71.6096 0.667557 72.7804 2.0563 72.7804 4.02978ZM67.5849 4.17596C67.5849 5.60125 68.3532 6.88035 69.7436 6.88035C71.0973 6.88035 71.9023 5.60124 71.8657 4.10286C71.8657 2.78721 71.1705 1.39847 69.707 1.39847C68.3166 1.36193 67.5849 2.67758 67.5849 4.17596Z" fill="#192040"/>
</svg>
